<?xml version="1.0" encoding="UTF-8"?>
<svg id="Layer_2" data-name="Layer 2" xmlns="http://www.w3.org/2000/svg" viewBox="0 0 2773.75 1036.2">
  <defs>
    <style>
      .cls-1 {
        fill: none;
        isolation: isolate;
      }

      .cls-2 {
        fill: #0a0;
      }
    </style>
  </defs>
  <g id="Layer_2-2" data-name="Layer 2">
    <g id="Layer_1-2" data-name="Layer 1-2">
      <g>
        <g>
          <path class="cls-2" d="m2147.88,770.29c-96.6,41.7-189.8,50.4-196.8,51-5.8.5-11.5-1.8-15.3-6.1-8.6-9.6-208.6-236.9-126.1-444.7,81.6-205.6,407.8-304.1,421.6-308.2,8.2-2.4,16.9,1.1,21.2,8.4,7.3,12.5,177,307.9,95.4,513.5-37.4,94.2-119.9,151.5-200,186.1h0Zm-190.6,13.2c50.3-6.4,289.8-45.4,356.3-212.9,66-166.2-54.6-409.9-85.9-468.4-62.9,21.1-317.8,115.9-383.7,281.9-66.5,167.8,81.1,360.2,113.3,399.4h0Z"/>
          <path class="cls-2" d="m1903.48,954.49c-4.3,1.9-9.4,2.1-14.1.2-9.5-3.8-14.1-14.5-10.3-24l161.1-351.4c3.8-9.5,14.5-14.1,24-10.3,9.5,3.8,14.1,14.5,10.3,24l-161.2,351.3c-1.9,4.8-5.5,8.3-9.8,10.2h0Z"/>
          <path class="cls-2" d="m2417.18,730.99c-105.1,4.9-195.3-19.9-202.1-21.8-5.6-1.6-10.1-5.7-12.2-11.1-4.6-12-111.5-295.3,39.1-460.6,149-163.6,488.9-140.6,503.3-139.5,8.5.6,15.4,7,16.8,15.3,2.4,14.2,56.9,350.5-92.1,514.1-68.2,75.1-165.6,99.6-252.8,103.6h0Zm-183-55c49.3,11.8,287.2,59.8,408.6-73.4,120.4-132.2,93.7-402.7,85.1-468.5-66.3-2.4-338.2-3.8-458.6,128.2-121.6,133.6-51.4,365.7-35.1,413.7h0Z"/>
        </g>
        <g class="cls-1">
          <path d="m0,0h37.02v474.71h292.52v33.39H0V0Z"/>
          <path d="m775.21,474.71v33.39h-350.59V0h339.7v33.39h-302.68v200.34h270.75v32.66h-270.75v208.32h313.57Z"/>
          <path d="m1224.51,365.11h-294.7l-64.6,142.99h-39.92L1059.02,0h37.02l233.73,508.1h-39.92l-65.33-142.99Zm-13.79-31.21l-133.56-293.25-132.83,293.25h266.39Z"/>
          <path d="m1458.96,33.39v217.03h270.75v33.39h-270.75v224.29h-37.02V0h339.7v33.39h-302.68Z"/>
        </g>
        <g class="cls-1">
          <path d="m.04,528.1h37.02v474.71h292.52v33.39H.04v-508.1Z"/>
          <path d="m424.66,528.1h37.02v508.1h-37.02v-508.1Z"/>
          <path d="m1052.53,528.1v508.1h-30.49l-346.24-441.32v441.32h-37.02v-508.1h31.21l345.51,441.32v-441.32h37.02Z"/>
          <path d="m1380.61,785.78l-113.96,116.86v133.56h-37.02v-508.1h37.02v326.64l317.2-326.64h45l-223.57,230.82,238.81,277.28h-45l-218.48-250.42Z"/>
        </g>
      </g>
    </g>
  </g>
</svg>